<svg xmlns="http://www.w3.org/2000/svg" xmlns:xlink="http://www.w3.org/1999/xlink" width="778.56" height="534.72" viewBox="0 0 583.92 401.04"><defs><path id="Z" d="M.734 0v-6.438h4.344v.75H1.594v2h3.015v.766H1.594V0Zm0 0"/><path id="a" d="M.672 0v-6.438h1.281L3.47-1.875c.144.418.25.734.312.953.07-.238.188-.582.344-1.031l1.547-4.484h1.14V0H6v-5.39L4.125 0h-.766L1.484-5.484V0Zm0 0"/><path id="c" d="M.594 0v-4.672h.703v.656a1.62 1.62 0 0 1 .578-.546c.25-.133.531-.204.844-.204.344 0 .625.075.844.22.218.136.374.335.468.593.375-.54.852-.813 1.438-.813.468 0 .828.133 1.078.391.25.25.375.64.375 1.172V0h-.797v-2.938c0-.32-.027-.55-.078-.687a.616.616 0 0 0-.266-.328.833.833 0 0 0-.484-.14c-.324 0-.594.109-.813.327-.218.22-.328.57-.328 1.047V0H3.36v-3.031c0-.352-.062-.617-.187-.797-.125-.176-.336-.266-.625-.266a1.1 1.1 0 0 0-.625.188.982.982 0 0 0-.406.515c-.086.22-.125.543-.125.97V0Zm0 0"/><path id="d" d="m5.297-2.266.844.22c-.18.698-.5 1.233-.97 1.608C4.712-.07 4.146.11 3.47.11c-.688 0-1.25-.14-1.688-.421-.437-.282-.773-.688-1-1.22a4.568 4.568 0 0 1-.328-1.734c0-.675.125-1.265.375-1.765.258-.5.625-.875 1.094-1.125.476-.258 1-.39 1.562-.39.645 0 1.188.167 1.625.5.446.323.754.78.922 1.374l-.843.188c-.149-.47-.36-.805-.641-1.016-.281-.219-.64-.328-1.078-.328-.492 0-.903.121-1.235.36a1.88 1.88 0 0 0-.703.968 3.729 3.729 0 0 0-.203 1.219c0 .554.078 1.039.234 1.453.165.406.415.71.75.906.333.2.696.297 1.094.297.477 0 .88-.133 1.203-.406.332-.282.563-.692.688-1.235Zm0 0"/><path id="e" d="m2.328-.703.11.687c-.231.051-.43.079-.594.079-.293 0-.516-.047-.672-.141a.843.843 0 0 1-.344-.36C.766-.582.734-.89.734-1.359v-2.688H.156v-.625h.578v-1.156l.797-.469v1.625h.797v.625h-.797v2.719c0 .23.008.375.032.437a.386.386 0 0 0 .14.157.46.46 0 0 0 .266.062c.093 0 .21-.008.36-.031Zm0 0"/><path id="f" d="M.578 0v-4.672h.719v.719c.176-.332.344-.55.5-.656a.93.93 0 0 1 .516-.157c.257 0 .53.086.812.25l-.281.735a1.114 1.114 0 0 0-.578-.172.804.804 0 0 0-.47.156.886.886 0 0 0-.296.438 3.15 3.15 0 0 0-.125.921V0Zm0 0"/><path id="g" d="M.578 0v-6.438h.781V0Zm0 0"/><path id="h" d="M.703 0v-6.438h2.86c.57 0 1.007.06 1.312.172.3.118.54.32.719.61.176.293.265.617.265.968a1.6 1.6 0 0 1-.453 1.157c-.293.312-.746.511-1.36.594.22.117.391.226.516.328.25.23.485.515.704.859L6.39 0H5.312l-.859-1.344a9.118 9.118 0 0 0-.61-.875 1.833 1.833 0 0 0-.437-.437 1.236 1.236 0 0 0-.375-.172 2.85 2.85 0 0 0-.484-.031h-.985V0Zm.86-3.594H3.39c.394 0 .703-.039.921-.125a.988.988 0 0 0 .5-.39c.114-.176.172-.368.172-.579a.96.96 0 0 0-.343-.75c-.22-.195-.57-.296-1.047-.296H1.563Zm0 0"/><path id="i" d="M-.016 0 2.47-6.438h.906L6.015 0h-.968l-.75-1.953H1.594L.89 0Zm1.86-2.64H4.03L3.36-4.438c-.21-.54-.359-.985-.453-1.329a7.796 7.796 0 0 1-.36 1.235Zm0 0"/><path id="s" d="M3.625 0v-.594C3.32-.125 2.883.11 2.312.11a1.8 1.8 0 0 1-1.015-.312 2.086 2.086 0 0 1-.734-.86c-.168-.363-.25-.785-.25-1.265 0-.469.078-.89.234-1.266.156-.383.383-.676.687-.875.313-.195.66-.297 1.047-.297.281 0 .531.059.75.172.219.117.395.274.531.469v-2.313h.797V0Zm-2.5-2.328c0 .594.125 1.043.375 1.344.25.293.547.437.89.437.344 0 .633-.14.876-.422.25-.281.375-.71.375-1.297 0-.632-.125-1.101-.375-1.406-.25-.3-.555-.453-.907-.453-.355 0-.652.148-.89.438-.23.292-.344.746-.344 1.359Zm0 0"/><path id="t" d="m.281-1.39.781-.126c.04.313.16.555.36.72.207.167.488.25.844.25.363 0 .632-.071.812-.22.176-.144.266-.316.266-.515a.46.46 0 0 0-.235-.422c-.117-.07-.386-.164-.812-.281-.586-.145-.992-.27-1.219-.375a1.121 1.121 0 0 1-.5-.438 1.15 1.15 0 0 1-.172-.625c0-.207.047-.398.14-.578.095-.176.224-.328.391-.453.125-.082.29-.156.5-.219.22-.062.446-.094.688-.094.363 0 .68.055.953.157.281.105.488.246.625.421.133.18.227.418.281.72l-.78.109a.818.818 0 0 0-.313-.563c-.168-.133-.403-.203-.704-.203-.367 0-.624.063-.78.188-.157.117-.235.257-.235.421 0 .106.031.196.094.266a.586.586 0 0 0 .312.219c.07.031.3.101.688.203.562.148.953.265 1.171.36.227.093.407.234.532.421.125.18.187.402.187.672 0 .273-.078.523-.234.75-.156.23-.383.414-.672.547-.281.125-.61.187-.984.187-.606 0-1.07-.125-1.391-.375C.562-.523.363-.898.281-1.39Zm0 0"/><path id="B" d="M.656 0v-6.438h.86v5.672h3.171V0Zm0 0"/><path id="C" d="M.297-2.328c0-.863.238-1.504.719-1.922.406-.344.894-.516 1.468-.516.645 0 1.172.211 1.579.625.406.418.609.996.609 1.735 0 .605-.094 1.078-.281 1.422-.18.343-.438.617-.782.812A2.311 2.311 0 0 1 2.484.11C1.828.11 1.297-.098.891-.516.492-.94.297-1.546.297-2.328Zm.812 0c0 .594.13 1.043.391 1.344.258.293.586.437.984.437.395 0 .723-.144.985-.437.258-.301.39-.758.39-1.375 0-.57-.132-1.008-.39-1.313-.262-.3-.59-.453-.985-.453-.398 0-.726.152-.984.453-.262.293-.39.742-.39 1.344Zm0 0"/><path id="D" d="M3.64-.578c-.292.25-.574.43-.843.531a2.484 2.484 0 0 1-.875.156C1.41.11 1.016-.016.734-.266c-.273-.25-.406-.57-.406-.968a1.299 1.299 0 0 1 .563-1.078c.164-.114.351-.204.562-.266.156-.031.39-.067.703-.11.645-.07 1.117-.164 1.422-.28v-.204c0-.32-.074-.547-.219-.672-.21-.187-.511-.281-.906-.281-.375 0-.652.07-.828.203-.18.125-.309.356-.39.688l-.766-.094c.062-.332.172-.598.328-.797.164-.207.398-.363.703-.469a3.093 3.093 0 0 1 1.063-.172c.406 0 .726.047.968.141.25.094.43.215.547.36.125.136.207.312.25.53.031.137.047.376.047.72v1.062c0 .73.016 1.195.047 1.39.031.2.098.387.203.563h-.828a1.537 1.537 0 0 1-.156-.578Zm-.062-1.766c-.293.117-.726.215-1.297.297-.324.055-.554.11-.687.172a.628.628 0 0 0-.313.25.687.687 0 0 0-.11.375c0 .21.079.387.235.531.157.137.39.203.703.203.301 0 .57-.066.813-.203a1.28 1.28 0 0 0 .531-.547c.082-.175.125-.437.125-.78Zm0 0"/><path id="F" d="m.406-2.063.797-.078c.04.325.129.59.266.797.144.211.363.375.656.5.29.125.617.188.984.188.32 0 .61-.047.86-.14.25-.095.437-.224.562-.391a.953.953 0 0 0 .188-.563.777.777 0 0 0-.188-.516c-.117-.156-.308-.285-.578-.39-.168-.07-.547-.176-1.14-.313-.594-.144-1.012-.281-1.25-.406a1.724 1.724 0 0 1-.688-.594 1.499 1.499 0 0 1-.219-.812c0-.32.086-.625.266-.907.187-.28.457-.492.812-.64.352-.145.75-.219 1.188-.219.476 0 .898.078 1.265.234.364.149.641.372.829.672.195.305.304.641.328 1.016l-.828.063c-.043-.407-.188-.711-.438-.922-.25-.207-.625-.313-1.125-.313-.512 0-.887.094-1.125.281-.242.188-.36.418-.36.688 0 .23.083.418.25.562.165.157.595.313 1.282.47.695.155 1.176.292 1.438.405.375.168.648.387.828.657.175.261.265.57.265.921 0 .336-.101.657-.297.97-.199.304-.48.538-.843.702a2.99 2.99 0 0 1-1.235.25C2.57.11 2.082.023 1.687-.14A2.141 2.141 0 0 1 .75-.906a2.182 2.182 0 0 1-.344-1.156Zm0 0"/><path id="G" d="M.656 0v-6.438h2.422c.488 0 .879.07 1.172.204.3.125.535.324.703.593.176.274.266.555.266.844a1.4 1.4 0 0 1-.235.781c-.148.243-.37.438-.671.594.382.117.68.309.89.578.219.274.328.594.328.969 0 .305-.07.586-.203.844a1.647 1.647 0 0 1-.469.61 2.01 2.01 0 0 1-.703.312C3.875-.035 3.523 0 3.11 0Zm.86-3.734h1.39c.375 0 .645-.024.813-.079.219-.062.379-.164.484-.312a.934.934 0 0 0 .172-.563c0-.218-.055-.406-.156-.562a.815.815 0 0 0-.438-.344c-.187-.062-.515-.093-.984-.093H1.516Zm0 2.968h1.593c.282 0 .477-.007.594-.03.188-.032.348-.087.485-.173a.947.947 0 0 0 .328-.36c.082-.155.125-.335.125-.546 0-.238-.063-.445-.188-.625a.926.926 0 0 0-.516-.36c-.218-.07-.53-.109-.937-.109H1.516Zm0 0"/><path id="H" d="M3.656 0v-.688c-.367.532-.86.797-1.484.797a1.93 1.93 0 0 1-.766-.156A1.494 1.494 0 0 1 .86-.453a1.31 1.31 0 0 1-.234-.578 4.248 4.248 0 0 1-.047-.75v-2.89h.781v2.593c0 .418.02.695.063.828.039.21.14.375.297.5.164.117.367.172.61.172.237 0 .46-.055.671-.172.207-.125.352-.29.438-.5.082-.207.124-.516.124-.922v-2.5h.797V0Zm0 0"/><path id="I" d="M.781 0v-4.047H.078v-.625h.703v-.484c0-.32.024-.555.078-.703a1.06 1.06 0 0 1 .407-.5c.195-.125.468-.188.812-.188.219 0 .461.027.735.078l-.126.688a2.32 2.32 0 0 0-.453-.047c-.242 0-.414.055-.515.156-.106.106-.157.297-.157.578v.422h.922v.625h-.921V0Zm0 0"/><path id="J" d="M4.922-6.438h.86v3.72c0 .648-.079 1.163-.235 1.546-.149.375-.414.684-.797.922-.375.242-.875.36-1.5.36-.605 0-1.102-.106-1.484-.313a1.787 1.787 0 0 1-.813-.906c-.168-.395-.25-.93-.25-1.61v-3.719h.86v3.72c0 .554.05.964.156 1.234.101.261.281.464.531.609.25.148.563.219.938.219.624 0 1.066-.14 1.328-.422.27-.29.406-.836.406-1.64Zm0 0"/><path id="K" d="M1.89 0 .11-4.672h.843l1 2.797c.102.305.203.617.297.938.07-.239.172-.532.297-.875l1.031-2.86h.813L2.625 0Zm0 0"/><path id="L" d="M.594-5.531v-.907h.797v.907ZM.594 0v-4.672h.797V0Zm0 0"/><path id="M" d="M.594 0v-4.672h.719V-4c.332-.508.828-.766 1.484-.766.281 0 .535.055.765.157.239.093.415.226.532.39.113.157.195.352.25.578.031.149.047.403.047.766V0h-.797v-2.844c0-.32-.031-.562-.094-.719a.761.761 0 0 0-.328-.374.986.986 0 0 0-.547-.157c-.336 0-.625.11-.875.328-.242.211-.36.618-.36 1.22V0Zm0 0"/><path id="T" d="M.438-3.14c0-1.063.285-1.895.859-2.5.57-.614 1.312-.923 2.219-.923.593 0 1.129.149 1.609.438.477.281.844.68 1.094 1.188.25.511.375 1.085.375 1.718 0 .656-.133 1.246-.39 1.766A2.718 2.718 0 0 1 5.077-.281c-.48.261-1 .39-1.562.39-.606 0-1.149-.144-1.625-.437A2.811 2.811 0 0 1 .797-1.531a3.697 3.697 0 0 1-.36-1.61Zm.875.015c0 .781.207 1.398.625 1.844.414.437.94.656 1.578.656.632 0 1.16-.223 1.578-.672.414-.445.625-1.086.625-1.922 0-.52-.09-.972-.266-1.36a2.082 2.082 0 0 0-.781-.921 2.088 2.088 0 0 0-1.14-.328c-.606 0-1.126.21-1.563.625-.438.418-.657 1.11-.657 2.078Zm0 0"/><path id="V" d="M.844 0v-6.438h.844V0Zm0 0"/><path id="W" d="M.281-1.938v-.796H2.72v.796Zm0 0"/><path id="X" d="m3.64-1.703.782.094c-.086.543-.305.964-.656 1.265-.356.305-.79.453-1.297.453C1.832.11 1.32-.098.938-.516.55-.93.359-1.53.359-2.312c0-.508.082-.954.25-1.329.164-.375.414-.656.75-.843a2.311 2.311 0 0 1 1.125-.282c.5 0 .91.133 1.235.391.32.25.531.61.625 1.078l-.766.125c-.074-.312-.203-.547-.39-.703a.994.994 0 0 0-.672-.25c-.407 0-.735.148-.985.438-.242.28-.36.73-.36 1.343 0 .637.118 1.094.36 1.375.239.281.551.422.938.422.312 0 .57-.094.781-.281.207-.188.336-.477.39-.875Zm0 0"/><path id="Y" d="M.594 0v-6.438h.797v2.313a1.75 1.75 0 0 1 1.39-.64c.344 0 .64.07.89.202.259.137.442.325.548.563.113.242.172.59.172 1.047V0h-.782v-2.953c0-.395-.09-.68-.265-.86-.168-.187-.406-.28-.719-.28-.242 0-.465.062-.672.187a.94.94 0 0 0-.437.484c-.086.211-.125.5-.125.875V0Zm0 0"/><path id="b" d="m3.781-1.5.828.094c-.136.48-.382.855-.734 1.125-.344.261-.79.39-1.328.39-.68 0-1.219-.207-1.625-.625C.523-.94.328-1.536.328-2.296c0-.782.203-1.384.61-1.813.406-.438.93-.657 1.578-.657.625 0 1.129.215 1.515.641.395.418.594 1.012.594 1.781v.219H1.141c.03.512.175.902.437 1.172.258.273.586.406.984.406.29 0 .536-.07.735-.219.207-.156.367-.398.484-.734ZM1.187-2.781h2.61c-.031-.395-.133-.692-.297-.89a1.22 1.22 0 0 0-.984-.454c-.368 0-.672.125-.922.375-.242.242-.375.563-.407.969Zm0 0"/><path id="aa" d="M.688 0v-6.438h2.437c.426 0 .754.024.984.063.313.055.57.152.782.297.218.148.39.355.515.625.133.262.203.555.203.875 0 .555-.18 1.016-.53 1.39-.345.376-.97.563-1.876.563H1.547V0Zm.859-3.375h1.672c.539 0 .926-.102 1.156-.313.238-.207.36-.492.36-.859 0-.27-.07-.5-.204-.687a.97.97 0 0 0-.547-.391c-.136-.04-.402-.063-.796-.063H1.546Zm0 0"/><path id="ab" d="M.688 0v-6.438h2.218c.508 0 .895.032 1.156.094.364.086.676.235.938.453.344.293.598.664.766 1.11.164.437.25.949.25 1.531 0 .492-.059.922-.172 1.297a3.373 3.373 0 0 1-.438.937c-.18.25-.375.45-.593.594a2.4 2.4 0 0 1-.766.313C3.754-.035 3.41 0 3.016 0Zm.859-.766h1.375c.426 0 .758-.035 1-.109a1.48 1.48 0 0 0 .578-.344c.195-.195.352-.468.469-.812.113-.344.172-.754.172-1.235 0-.675-.11-1.191-.329-1.546-.218-.364-.492-.61-.812-.735-.23-.094-.594-.14-1.094-.14h-1.36Zm0 0"/><path id="ac" d="M.453.39 1.22.5c.031.238.117.41.265.516.196.144.47.218.813.218.363 0 .644-.074.844-.218.195-.149.332-.352.406-.61.039-.168.055-.504.047-1.015C3.25-.203 2.82 0 2.313 0c-.649 0-1.149-.227-1.5-.688C.469-1.155.296-1.71.296-2.359c0-.446.078-.86.234-1.235.164-.375.399-.66.703-.86.301-.206.66-.312 1.079-.312.55 0 1.003.22 1.359.657v-.563h.734V-.64c0 .727-.078 1.243-.234 1.547-.149.301-.383.54-.703.719-.313.176-.703.266-1.172.266-.563 0-1.016-.125-1.36-.375C.603 1.266.442.89.454.39Zm.656-2.812c0 .617.118 1.063.36 1.344.238.281.539.422.906.422.363 0 .672-.14.922-.422.25-.281.375-.719.375-1.313 0-.57-.133-1.004-.39-1.296-.25-.29-.555-.438-.907-.438-.355 0-.656.148-.906.438-.242.28-.36.703-.36 1.265Zm0 0"/><path id="j" d="m4.844-2.078.781.203c-.156.648-.45 1.137-.875 1.469-.43.336-.95.5-1.563.5-.636 0-1.156-.125-1.562-.375-.398-.258-.7-.633-.906-1.125A4.055 4.055 0 0 1 .406-3c0-.613.114-1.148.344-1.61.238-.456.578-.8 1.016-1.03A2.95 2.95 0 0 1 3.203-6c.582 0 1.078.152 1.485.453.406.293.687.715.843 1.266l-.765.172c-.137-.426-.336-.739-.594-.938-.262-.195-.59-.297-.984-.297-.461 0-.84.11-1.141.328a1.736 1.736 0 0 0-.64.891A3.468 3.468 0 0 0 1.218-3c0 .5.07.938.218 1.313.145.375.368.656.672.843.313.188.649.281 1.016.281.438 0 .805-.125 1.11-.375.3-.257.503-.64.609-1.14Zm0 0"/><path id="k" d="M.64 0v-5.906h2.032c.457 0 .805.027 1.047.078.344.086.633.23.875.437.312.262.539.594.687 1 .157.407.235.875.235 1.407 0 .449-.055.851-.157 1.203a2.93 2.93 0 0 1-.406.86 2.143 2.143 0 0 1-.531.53c-.2.125-.438.227-.719.297A4.229 4.229 0 0 1 2.766 0Zm.782-.703h1.25c.394 0 .703-.035.922-.11.219-.07.394-.171.531-.296.188-.188.332-.438.438-.75.101-.313.156-.692.156-1.141 0-.613-.106-1.086-.313-1.422-.199-.332-.445-.555-.734-.672-.211-.07-.547-.11-1.016-.11H1.422Zm0 0"/><path id="l" d="M.61 0v-5.906h2.203c.457 0 .82.062 1.093.187.27.117.485.297.64.547.157.25.235.512.235.781 0 .25-.074.493-.218.72-.137.218-.34.398-.61.53.352.106.625.282.813.532.195.25.296.546.296.89 0 .282-.058.543-.171.782a1.392 1.392 0 0 1-.438.546 1.91 1.91 0 0 1-.64.297A4.157 4.157 0 0 1 2.859 0Zm.78-3.422h1.266c.352 0 .602-.023.75-.078a.809.809 0 0 0 .453-.281.827.827 0 0 0 .157-.516.894.894 0 0 0-.157-.516.695.695 0 0 0-.406-.312c-.168-.05-.465-.078-.89-.078H1.39Zm0 2.719h1.47c.25 0 .425-.004.53-.016.176-.039.32-.097.438-.172a.74.74 0 0 0 .297-.328 1 1 0 0 0 .125-.5.934.934 0 0 0-.172-.562.82.82 0 0 0-.469-.344c-.199-.07-.484-.11-.859-.11H1.39Zm0 0"/><path id="n" d="M.61 0v-5.906h.78v5.203h2.907V0Zm0 0"/><path id="o" d="M.281-2.14c0-.79.219-1.38.656-1.766.364-.313.813-.469 1.344-.469.582 0 1.063.195 1.438.578.375.387.562.918.562 1.594 0 .555-.086.992-.25 1.312a1.807 1.807 0 0 1-.718.735C3 .008 2.655.094 2.28.094c-.605 0-1.09-.192-1.453-.578C.461-.867.281-1.422.281-2.141Zm.735 0c0 .554.117.964.359 1.234.238.273.54.406.906.406.352 0 .649-.133.89-.406.24-.281.36-.696.36-1.25 0-.531-.12-.93-.36-1.203a1.132 1.132 0 0 0-.89-.422c-.367 0-.668.14-.906.422-.242.273-.36.68-.36 1.218Zm0 0"/><path id="p" d="M3.328-.531c-.262.23-.515.39-.765.484a2.25 2.25 0 0 1-.797.14C1.296.094.93-.02.672-.25a1.13 1.13 0 0 1-.375-.875c0-.207.047-.398.14-.578.094-.176.22-.317.376-.422.156-.102.332-.18.53-.234.134-.032.348-.067.641-.11.582-.062 1.016-.144 1.297-.25v-.187c0-.29-.07-.5-.203-.625-.187-.164-.465-.25-.828-.25-.344 0-.602.062-.766.187-.156.117-.277.328-.359.64l-.703-.108c.062-.301.164-.547.312-.735.157-.187.368-.328.641-.422.281-.101.61-.156.984-.156.364 0 .657.047.875.14.227.087.395.196.5.329.114.125.192.289.235.484.031.117.047.336.047.656v.97c0 .679.007 1.105.03 1.28.032.18.095.352.188.516h-.75a1.708 1.708 0 0 1-.156-.531Zm-.047-1.61c-.273.106-.668.196-1.187.266-.305.043-.516.094-.64.156a.601.601 0 0 0-.376.578c0 .188.07.352.219.485.144.125.36.187.64.187.282 0 .524-.062.735-.187a1.17 1.17 0 0 0 .484-.5c.082-.164.125-.407.125-.719Zm0 0"/><path id="q" d="M3.313 0v-.547c-.274.43-.668.64-1.188.64-.344 0-.664-.093-.953-.28A1.85 1.85 0 0 1 .516-.97 2.802 2.802 0 0 1 .28-2.14c0-.425.067-.812.203-1.156.145-.344.36-.61.641-.797.29-.187.613-.281.969-.281.258 0 .488.059.687.172.196.105.36.246.485.422v-2.125h.718V0ZM1.03-2.14c0 .554.114.964.344 1.234.227.273.5.406.813.406.32 0 .593-.129.812-.39.219-.258.328-.657.328-1.188 0-.582-.117-1.008-.344-1.281-.218-.282-.496-.422-.828-.422-.324 0-.594.136-.812.406-.211.262-.313.672-.313 1.234Zm0 0"/><path id="r" d="m2.125-.656.11.64c-.212.051-.391.079-.547.079-.262 0-.465-.043-.61-.126A.703.703 0 0 1 .766-.39C.703-.523.672-.812.672-1.25v-2.469H.14v-.562h.53v-1.063l.72-.422v1.485h.734v.562h-.734v2.5c0 .211.007.344.03.407.032.062.071.109.126.14a.599.599 0 0 0 .266.047c.07 0 .175-.008.312-.031Zm0 0"/><path id="v" d="M0 .094 1.719-6h.578L.578.094Zm0 0"/><path id="w" d="m.375-1.89.734-.079c.032.305.11.547.235.735.133.187.332.343.593.468.27.118.579.172.922.172.29 0 .551-.039.782-.125.226-.094.394-.219.5-.375a.861.861 0 0 0 .171-.515.769.769 0 0 0-.156-.47c-.105-.144-.281-.265-.531-.358-.156-.063-.508-.157-1.047-.282-.543-.133-.922-.258-1.14-.375a1.652 1.652 0 0 1-.641-.547 1.35 1.35 0 0 1-.203-.734c0-.3.082-.582.25-.844.176-.258.426-.453.75-.578.32-.133.68-.203 1.078-.203.437 0 .82.074 1.156.219.332.136.586.34.766.61.187.273.285.585.297.937l-.75.046c-.043-.375-.18-.656-.407-.843-.23-.188-.574-.282-1.03-.282-.47 0-.813.09-1.032.266-.219.168-.328.371-.328.61 0 .218.078.398.234.53.156.137.547.278 1.172.423.633.148 1.07.273 1.313.375.343.156.597.359.765.609.164.242.25.516.25.828 0 .313-.094.61-.281.89-.18.282-.438.5-.781.657A2.82 2.82 0 0 1 2.89.094c-.532 0-.98-.074-1.344-.219a1.89 1.89 0 0 1-.86-.703c-.199-.32-.304-.676-.312-1.063Zm0 0"/><path id="x" d="M.531 0v-4.281h.656v.656c.165-.3.317-.5.454-.594a.804.804 0 0 1 .468-.156c.25 0 .5.078.75.234l-.25.672a1.077 1.077 0 0 0-.53-.156.686.686 0 0 0-.423.14.846.846 0 0 0-.281.407c-.074.25-.11.531-.11.844V0Zm0 0"/><path id="y" d="m3.469-1.375.75.094c-.117.437-.336.777-.657 1.015-.324.243-.73.36-1.218.36-.625 0-1.125-.192-1.5-.578C.477-.867.297-1.41.297-2.11c0-.72.18-1.274.547-1.672.375-.395.86-.594 1.453-.594.57 0 1.039.2 1.406.594.363.386.547.933.547 1.64 0 .043-.008.106-.016.188H1.047c.031.469.164.828.406 1.078.238.25.535.375.89.375.27 0 .5-.066.688-.203.188-.145.332-.367.438-.672ZM1.094-2.547h2.39c-.03-.363-.125-.633-.28-.812a1.1 1.1 0 0 0-.892-.422c-.335 0-.617.117-.843.344-.23.218-.356.515-.375.89Zm0 0"/><path id="z" d="M-.016 0 2.25-5.906h.844L5.516 0h-.891l-.688-1.781H1.47L.812 0Zm1.704-2.422h2l-.61-1.64c-.187-.5-.328-.907-.422-1.22-.074.376-.18.75-.312 1.126Zm0 0"/><path id="A" d="m.25-1.281.719-.11c.039.293.148.516.328.672.187.149.445.219.781.219.332 0 .578-.066.735-.203a.611.611 0 0 0 .25-.485c0-.156-.075-.28-.22-.375-.093-.062-.34-.144-.734-.25-.53-.132-.902-.25-1.109-.343a1.073 1.073 0 0 1-.469-.406 1.098 1.098 0 0 1-.156-.579c0-.187.04-.363.125-.53.094-.165.21-.302.36-.407.113-.082.265-.149.453-.203.195-.063.41-.094.64-.094.332 0 .625.055.875.156.258.094.445.227.563.39.125.157.207.376.25.657l-.704.094a.772.772 0 0 0-.28-.516C2.5-3.719 2.28-3.78 2-3.78c-.336 0-.574.058-.719.172-.136.105-.203.23-.203.375 0 .105.031.195.094.265.05.074.14.137.266.188.07.031.285.094.64.187.52.137.879.25 1.078.344.196.086.352.21.469.375.125.168.188.375.188.625a1.297 1.297 0 0 1-.828 1.172 2.26 2.26 0 0 1-.907.172C1.523.094 1.102-.02.813-.25.52-.477.332-.82.25-1.281Zm0 0"/><path id="O" d="m3.328-1.563.719.094c-.074.492-.274.875-.594 1.157-.324.273-.719.406-1.187.406C1.68.094 1.21-.094.859-.47.504-.852.33-1.406.33-2.125c0-.457.07-.86.218-1.203.156-.352.39-.613.703-.781a2.032 2.032 0 0 1 1.016-.266c.468 0 .847.121 1.14.36.301.23.492.562.578 1l-.703.109c-.074-.29-.199-.508-.375-.656a.904.904 0 0 0-.61-.22c-.366 0-.663.134-.89.391-.23.262-.343.68-.343 1.25 0 .575.109.993.328 1.25.226.262.52.391.875.391.28 0 .515-.082.703-.25.195-.176.316-.445.36-.813Zm0 0"/><path id="Q" d="M2.328 0 .031-5.906h.844L2.422-1.61c.125.343.226.664.312.953.082-.313.188-.63.313-.953L4.64-5.906h.796L3.126 0Zm0 0"/><path id="R" d="M.531 0v-5.906h.719V0Zm0 0"/><path id="S" d="M3.344 0v-.625c-.336.48-.79.719-1.36.719-.25 0-.484-.047-.703-.14-.218-.095-.383-.212-.484-.36a1.309 1.309 0 0 1-.219-.547 3.471 3.471 0 0 1-.047-.672v-2.656h.719v2.375c0 .375.016.633.047.765.039.188.133.34.281.454a.98.98 0 0 0 .563.156c.218 0 .421-.051.609-.156a.913.913 0 0 0 .39-.454c.083-.195.126-.476.126-.843v-2.297H4V0Zm0 0"/><path id="ad" d="M.547 0v-4.281h.64v.61c.133-.208.313-.376.532-.5.226-.134.484-.204.765-.204.32 0 .582.07.782.203.207.125.351.309.437.547.332-.5.77-.75 1.313-.75.425 0 .754.121.984.36.227.23.344.59.344 1.077V0h-.719v-2.688c0-.289-.027-.5-.078-.624a.55.55 0 0 0-.25-.313.787.787 0 0 0-.438-.125.987.987 0 0 0-.75.313c-.199.199-.296.515-.296.953V0h-.735v-2.781c0-.32-.058-.563-.172-.719-.117-.164-.308-.25-.578-.25-.21 0-.402.059-.578.172a.944.944 0 0 0-.375.469c-.074.21-.11.507-.11.89V0Zm0 0"/><path id="ae" d="M.547-5.078v-.828h.719v.828ZM.547 0v-4.281h.719V0Zm0 0"/><clipPath id="m"><path d="M68 374h27v25.344H68Zm0 0"/></clipPath><clipPath id="N"><path d="M383 374h27v25.344h-27Zm0 0"/></clipPath><clipPath id="P"><path d="M338 374h27v25.344h-27Zm0 0"/></clipPath><clipPath id="U"><path d="M563 81h20.922v27H563Zm0 0"/></clipPath></defs><path fill="#FFF" stroke="#000" stroke-width=".75064" d="M75.441 121.23h42.036c.59 0 1.175.055 1.757.172a9.042 9.042 0 0 1 3.246 1.344 9.126 9.126 0 0 1 2.484 2.484 9.042 9.042 0 0 1 1.52 5.008v162.137c0 .59-.058 1.176-.175 1.758a8.883 8.883 0 0 1-.512 1.691 9.152 9.152 0 0 1-.832 1.555 8.964 8.964 0 0 1-2.484 2.484 8.8 8.8 0 0 1-1.56.836 9.444 9.444 0 0 1-1.687.512 9.182 9.182 0 0 1-1.757.172H75.44c-.593 0-1.18-.059-1.757-.172a9.387 9.387 0 0 1-1.692-.512 9.1 9.1 0 0 1-2.922-1.953 8.964 8.964 0 0 1-1.12-1.367 9.152 9.152 0 0 1-.833-1.555 8.883 8.883 0 0 1-.511-1.691 8.88 8.88 0 0 1-.172-1.758V130.238c0-.593.054-1.18.172-1.757a9.042 9.042 0 0 1 1.344-3.25 9.126 9.126 0 0 1 2.484-2.485 9.042 9.042 0 0 1 3.25-1.344 8.823 8.823 0 0 1 1.757-.171Zm0 0"/><use xlink:href="#a" x="79.064" y="213.933"/><use xlink:href="#b" x="86.567" y="213.933"/><use xlink:href="#c" x="91.577" y="213.933"/><use xlink:href="#d" x="99.08" y="213.933"/><use xlink:href="#e" x="105.586" y="213.933"/><use xlink:href="#f" x="108.088" y="213.933"/><use xlink:href="#g" x="111.088" y="213.933"/><path fill="none" stroke="#000" stroke-miterlimit="10" stroke-width=".75064" d="M6.379 196.293h55.27"/><path stroke="#000" stroke-miterlimit="10" stroke-width=".75064" d="m65.59 196.293-5.254 2.629 1.312-2.629-1.312-2.629Zm0 0"/><path fill="none" stroke="#000" stroke-miterlimit="10" stroke-width=".75064" d="M66.434 226.32H11.16"/><path stroke="#000" stroke-miterlimit="10" stroke-width=".75064" d="m7.223 226.32 5.254-2.628-1.317 2.628 1.317 2.625Zm0 0"/><use xlink:href="#h" x="22.648" y="213.933"/><use xlink:href="#i" x="29.153" y="213.933"/><use xlink:href="#a" x="35.161" y="213.933"/><path fill="none" stroke="#000" stroke-miterlimit="10" stroke-width=".75064" d="M6.379 391.461h570.488"/><path fill="#FFF" d="M260.473 388.832h17.265v9.758h-17.265Zm0 0"/><use xlink:href="#j" x="260.391" y="396.339"/><use xlink:href="#k" x="266.354" y="396.339"/><use xlink:href="#l" x="272.317" y="396.339"/><path fill="none" stroke="#000" stroke-miterlimit="10" stroke-width=".75064" d="M81.445 301.383v85.297"/><path d="m81.445 390.621-2.629-5.258 2.63 1.317 2.624-1.317Zm0 0"/><g clip-path="url(#m)"><path fill="none" stroke="#000" stroke-miterlimit="10" stroke-width=".75064" d="m81.445 390.621-2.629-5.258 2.63 1.317 2.624-1.317zm0 0"/></g><path fill="#FFF" d="M72.813 331.785h18.765v20.266H72.812Zm0 0"/><use xlink:href="#n" x="73.012" y="339.29"/><use xlink:href="#o" x="77.604" y="339.29"/><use xlink:href="#p" x="82.196" y="339.29"/><use xlink:href="#q" x="86.788" y="339.29"/><use xlink:href="#k" x="73.469" y="349.799"/><use xlink:href="#p" x="79.432" y="349.799"/><use xlink:href="#r" x="84.024" y="349.799"/><use xlink:href="#p" x="86.318" y="349.799"/><path fill="#FFF" stroke="#000" stroke-miterlimit="10" stroke-width=".75064" d="m164.016 256.344 17.265 45.039h40.536l17.261-45.04Zm0 0"/><use xlink:href="#i" x="184.646" y="276.236"/><use xlink:href="#s" x="190.654" y="276.236"/><use xlink:href="#s" x="195.664" y="276.236"/><use xlink:href="#f" x="200.674" y="276.236"/><use xlink:href="#b" x="203.673" y="276.236"/><use xlink:href="#t" x="208.683" y="276.236"/><use xlink:href="#t" x="213.187" y="276.236"/><use xlink:href="#i" x="189.15" y="287.496"/><use xlink:href="#s" x="195.158" y="287.496"/><use xlink:href="#s" x="200.168" y="287.496"/><use xlink:href="#b" x="205.178" y="287.496"/><use xlink:href="#f" x="210.187" y="287.496"/><path fill="none" stroke="#000" stroke-miterlimit="10" stroke-width=".75064" d="M111.469 331.41v-25.246"/><path stroke="#000" stroke-miterlimit="10" stroke-width=".75064" d="m111.469 302.223 2.629 5.254-2.63-1.313-2.624 1.313Zm0 0"/><path fill="none" stroke="#000" stroke-miterlimit="10" stroke-width=".75064" d="M111.469 331.41h90.078"/><path fill="#FFF" d="M121.605 327.281h77.317v9.758h-77.317Zm0 0"/><use xlink:href="#n" x="121.71" y="334.787"/><use xlink:href="#o" x="126.302" y="334.787"/><use xlink:href="#p" x="130.894" y="334.787"/><use xlink:href="#q" x="135.486" y="334.787"/><use xlink:href="#u" x="140.078" y="334.787"/><use xlink:href="#v" x="142.373" y="334.787"/><use xlink:href="#u" x="144.667" y="334.787"/><use xlink:href="#w" x="146.961" y="334.787"/><use xlink:href="#r" x="152.468" y="334.787"/><use xlink:href="#o" x="154.762" y="334.787"/><use xlink:href="#x" x="159.354" y="334.787"/><use xlink:href="#y" x="162.104" y="334.787"/><use xlink:href="#u" x="166.696" y="334.787"/><use xlink:href="#z" x="168.535" y="334.787"/><use xlink:href="#q" x="174.042" y="334.787"/><use xlink:href="#q" x="178.634" y="334.787"/><use xlink:href="#x" x="183.226" y="334.787"/><use xlink:href="#y" x="185.976" y="334.787"/><use xlink:href="#A" x="190.568" y="334.787"/><use xlink:href="#A" x="194.697" y="334.787"/><path fill="none" stroke="#000" stroke-miterlimit="10" stroke-width=".75064" d="M201.547 301.383v30.027M96.457 361.434v-55.27"/><path stroke="#000" stroke-miterlimit="10" stroke-width=".75064" d="m96.457 302.223 2.629 5.254-2.629-1.313-2.625 1.313Zm0 0"/><path fill="none" stroke="#000" stroke-miterlimit="10" stroke-width=".75064" d="M96.457 361.434h150.13"/><path fill="#FFF" d="M150.879 357.305h39.785v9.757H150.88Zm0 0"/><use xlink:href="#w" x="151.032" y="364.812"/><use xlink:href="#r" x="156.539" y="364.812"/><use xlink:href="#o" x="158.833" y="364.812"/><use xlink:href="#x" x="163.425" y="364.812"/><use xlink:href="#y" x="166.175" y="364.812"/><use xlink:href="#u" x="170.767" y="364.812"/><use xlink:href="#k" x="173.061" y="364.812"/><use xlink:href="#p" x="179.024" y="364.812"/><use xlink:href="#r" x="183.616" y="364.812"/><use xlink:href="#p" x="185.911" y="364.812"/><path fill="#FFF" stroke="#000" stroke-width=".75064" d="M170.582 121.23h91.957a14.066 14.066 0 0 1 13 8.688c.356.852.621 1.734.801 2.64.184.907.273 1.821.273 2.747v65.68c0 .925-.09 1.84-.273 2.746-.18.906-.445 1.785-.8 2.64a13.877 13.877 0 0 1-1.302 2.434 13.67 13.67 0 0 1-1.75 2.133 14.127 14.127 0 0 1-4.566 3.05 14.107 14.107 0 0 1-5.383 1.07h-91.957a14.069 14.069 0 0 1-9.95-4.121 13.67 13.67 0 0 1-1.75-2.132c-.515-.77-.948-1.582-1.3-2.434a13.907 13.907 0 0 1-.8-2.64 13.785 13.785 0 0 1-.274-2.747v-65.68c0-.925.09-1.84.273-2.745.18-.907.446-1.79.801-2.641a13.74 13.74 0 0 1 1.3-2.434 13.67 13.67 0 0 1 1.75-2.132 13.895 13.895 0 0 1 2.134-1.75c.765-.516 1.578-.95 2.433-1.301a14.105 14.105 0 0 1 5.383-1.07Zm0 0"/><use xlink:href="#B" x="180.964" y="171.147"/><use xlink:href="#C" x="185.973" y="171.147"/><use xlink:href="#D" x="190.983" y="171.147"/><use xlink:href="#s" x="195.992" y="171.147"/><use xlink:href="#E" x="201.002" y="171.147"/><use xlink:href="#F" x="203.505" y="171.147"/><use xlink:href="#e" x="209.513" y="171.147"/><use xlink:href="#C" x="212.015" y="171.147"/><use xlink:href="#f" x="217.025" y="171.147"/><use xlink:href="#b" x="220.025" y="171.147"/><use xlink:href="#E" x="225.034" y="171.147"/><use xlink:href="#G" x="227.537" y="171.147"/><use xlink:href="#H" x="233.545" y="171.147"/><use xlink:href="#I" x="238.555" y="171.147"/><use xlink:href="#I" x="240.895" y="171.147"/><use xlink:href="#b" x="243.397" y="171.147"/><use xlink:href="#f" x="248.407" y="171.147"/><path fill="none" stroke="#000" stroke-miterlimit="10" stroke-width=".75064" d="M190.29 215.059v36.504"/><path stroke="#000" stroke-miterlimit="10" stroke-width=".75064" d="m190.29 255.504-2.63-5.254 2.63 1.313 2.624-1.313Zm0 0"/><path fill="none" stroke="#000" stroke-miterlimit="10" stroke-width=".75064" d="M216.559 215.059v36.504"/><path stroke="#000" stroke-miterlimit="10" stroke-width=".75064" d="m216.559 255.504-2.625-5.254 2.625 1.313 2.629-1.313Zm0 0"/><path fill="none" stroke="#000" stroke-miterlimit="10" stroke-width=".75064" d="M246.586 215.059v146.375"/><path fill="#FFF" stroke="#000" stroke-miterlimit="10" stroke-width=".75064" d="m314.895 256.344 17.265 45.039h40.536l17.261-45.04Zm0 0"/><use xlink:href="#i" x="343.29" y="281.491"/><use xlink:href="#B" x="349.298" y="281.491"/><use xlink:href="#J" x="354.308" y="281.491"/><path fill="#FFF" stroke="#000" stroke-width=".75064" d="M321.461 121.23h91.957c.922 0 1.836.09 2.746.27.907.18 1.785.445 2.637.8.855.352 1.668.786 2.434 1.302.77.511 1.48 1.097 2.132 1.75a13.67 13.67 0 0 1 1.75 2.132c.516.77.95 1.579 1.301 2.434.356.852.621 1.734.801 2.64.184.907.273 1.821.273 2.747v65.68c0 .925-.09 1.84-.273 2.746-.18.906-.445 1.785-.8 2.64a13.877 13.877 0 0 1-1.302 2.434 13.67 13.67 0 0 1-1.75 2.133 14.127 14.127 0 0 1-4.566 3.05 14.069 14.069 0 0 1-5.383 1.07h-91.957a14.066 14.066 0 0 1-13.8-11.327 13.785 13.785 0 0 1-.274-2.747v-65.68c0-.925.09-1.84.273-2.745.18-.907.446-1.79.801-2.641a13.74 13.74 0 0 1 1.3-2.434 13.67 13.67 0 0 1 1.75-2.132 13.895 13.895 0 0 1 2.134-1.75c.765-.516 1.578-.95 2.433-1.301a14.066 14.066 0 0 1 5.383-1.07Zm0 0"/><use xlink:href="#h" x="327.749" y="171.147"/><use xlink:href="#b" x="334.254" y="171.147"/><use xlink:href="#t" x="339.264" y="171.147"/><use xlink:href="#b" x="343.768" y="171.147"/><use xlink:href="#f" x="348.778" y="171.147"/><use xlink:href="#K" x="351.777" y="171.147"/><use xlink:href="#D" x="356.281" y="171.147"/><use xlink:href="#e" x="361.291" y="171.147"/><use xlink:href="#L" x="363.793" y="171.147"/><use xlink:href="#C" x="365.795" y="171.147"/><use xlink:href="#M" x="370.804" y="171.147"/><use xlink:href="#E" x="375.814" y="171.147"/><use xlink:href="#F" x="378.317" y="171.147"/><use xlink:href="#e" x="384.325" y="171.147"/><use xlink:href="#D" x="386.827" y="171.147"/><use xlink:href="#e" x="391.837" y="171.147"/><use xlink:href="#L" x="394.34" y="171.147"/><use xlink:href="#C" x="396.341" y="171.147"/><use xlink:href="#M" x="401.35" y="171.147"/><path fill="none" stroke="#000" stroke-miterlimit="10" stroke-width=".75064" d="M341.168 215.059v36.504"/><path stroke="#000" stroke-miterlimit="10" stroke-width=".75064" d="m341.168 255.504-2.629-5.254 2.63 1.313 2.624-1.313Zm0 0"/><path fill="none" stroke="#000" stroke-miterlimit="10" stroke-width=".75064" d="M367.442 215.059v36.504"/><path stroke="#000" stroke-miterlimit="10" stroke-width=".75064" d="m367.442 255.504-2.63-5.254 2.63 1.313 2.625-1.313Zm0 0"/><path fill="none" stroke="#000" stroke-miterlimit="10" stroke-width=".75064" d="m397.465 215.059-.727 171.62"/><path d="m396.715 390.621-2.606-5.266 2.63 1.325 2.624-1.301Zm0 0"/><g clip-path="url(#N)"><path fill="none" stroke="#000" stroke-miterlimit="10" stroke-width=".75064" d="m396.715 390.621-2.605-5.265 2.628 1.324 2.625-1.3zm0 0"/></g><path fill="#FFF" d="M394.086 292h12.762v9.758h-12.762Zm0 0"/><use xlink:href="#w" x="394.275" y="299.506"/><use xlink:href="#x" x="399.782" y="299.506"/><use xlink:href="#O" x="402.532" y="299.506"/><path fill="none" stroke="#000" stroke-miterlimit="10" stroke-width=".75064" d="m352.426 301.383-.711 85.297"/><path d="m351.684 390.621-2.582-5.277 2.613 1.336 2.64-1.293Zm0 0"/><g clip-path="url(#P)"><path fill="none" stroke="#000" stroke-miterlimit="10" stroke-width=".75064" d="m351.684 390.621-2.582-5.277 2.613 1.336 2.64-1.293zm0 0"/></g><path fill="#FFF" d="M341.543 344.547h20.266v9.758h-20.266Zm0 0"/><use xlink:href="#Q" x="341.425" y="352.051"/><use xlink:href="#p" x="346.32" y="352.051"/><use xlink:href="#R" x="350.912" y="352.051"/><use xlink:href="#S" x="352.746" y="352.051"/><use xlink:href="#y" x="357.339" y="352.051"/><path fill="#FFF" stroke="#000" stroke-width=".75064" d="M470.278 121.23h63.054a13.453 13.453 0 0 1 7.508 2.277c.734.493 1.418 1.052 2.047 1.68a13.555 13.555 0 0 1 2.93 4.383 13.644 13.644 0 0 1 1.027 5.172V317.9c0 .886-.086 1.765-.262 2.632a13.413 13.413 0 0 1-2.016 4.871 13.646 13.646 0 0 1-1.679 2.051 13.813 13.813 0 0 1-2.047 1.68 13.68 13.68 0 0 1-2.336 1.246 13.593 13.593 0 0 1-5.172 1.031h-63.054a13.593 13.593 0 0 1-5.172-1.03 13.68 13.68 0 0 1-2.336-1.247 13.813 13.813 0 0 1-2.047-1.68 13.646 13.646 0 0 1-2.93-4.386 13.27 13.27 0 0 1-.765-2.536 13.227 13.227 0 0 1-.262-2.632V134.742c0-.89.086-1.77.262-2.636a13.355 13.355 0 0 1 2.015-4.872 13.423 13.423 0 0 1 1.68-2.046 13.573 13.573 0 0 1 4.383-2.93c.82-.34 1.664-.598 2.535-.77.871-.172 1.75-.257 2.637-.257Zm0 0"/><use xlink:href="#h" x="491.659" y="228.946"/><use xlink:href="#T" x="498.164" y="228.946"/><use xlink:href="#G" x="505.171" y="228.946"/><path fill="none" stroke="#000" stroke-miterlimit="10" stroke-width=".75064" d="M576.867 391.461V95.984"/><path d="m576.867 92.043 2.63 5.254-2.63-1.313-2.625 1.313Zm0 0"/><g clip-path="url(#U)"><path fill="none" stroke="#000" stroke-miterlimit="10" stroke-width=".75064" d="m576.867 92.043 2.63 5.254-2.63-1.313-2.625 1.313zm0 0"/></g><path fill="none" stroke="#000" stroke-miterlimit="10" stroke-width=".75064" d="M576.867 226.32h-25.242"/><path stroke="#000" stroke-miterlimit="10" stroke-width=".75064" d="m547.684 226.32 5.254-2.628-1.313 2.628 1.313 2.625Zm0 0"/><path fill="#FFF" stroke="#000" stroke-width=".75064" d="M75.441 1.125h42.036c.59 0 1.175.059 1.757.176a9.042 9.042 0 0 1 3.246 1.344c.493.328.946.703 1.364 1.12a8.933 8.933 0 0 1 1.953 2.923c.227.546.398 1.109.512 1.687.117.582.175 1.168.175 1.758v42.035c0 .594-.058 1.18-.175 1.758a9.042 9.042 0 0 1-1.344 3.25 9.126 9.126 0 0 1-2.484 2.484 9.042 9.042 0 0 1-3.247 1.344 8.88 8.88 0 0 1-1.757.172H75.44c-.593 0-1.18-.055-1.757-.172a9.042 9.042 0 0 1-3.25-1.344 9.126 9.126 0 0 1-2.485-2.484 9.042 9.042 0 0 1-1.343-3.25 8.823 8.823 0 0 1-.172-1.758V10.133c0-.59.054-1.176.172-1.758a9.042 9.042 0 0 1 1.344-3.246 9.126 9.126 0 0 1 2.484-2.484 9.042 9.042 0 0 1 5.007-1.52Zm0 0"/><use xlink:href="#V" x="80.307" y="33.779"/><use xlink:href="#W" x="82.81" y="33.779"/><use xlink:href="#d" x="85.809" y="33.779"/><use xlink:href="#D" x="92.314" y="33.779"/><use xlink:href="#X" x="97.324" y="33.779"/><use xlink:href="#Y" x="101.828" y="33.779"/><use xlink:href="#b" x="106.838" y="33.779"/><path fill="none" stroke="#000" stroke-miterlimit="10" stroke-width=".75064" d="M111.469 121.23V65.958"/><path stroke="#000" stroke-miterlimit="10" stroke-width=".75064" d="m111.469 62.02 2.629 5.253-2.63-1.316-2.624 1.316Zm0 0"/><path fill="none" stroke="#000" stroke-miterlimit="10" stroke-width=".75064" d="M81.445 61.176v55.27"/><path stroke="#000" stroke-miterlimit="10" stroke-width=".75064" d="m81.445 120.387-2.629-5.254 2.63 1.312 2.624-1.312Zm0 0"/><path fill="#FFF" stroke="#000" stroke-width=".75064" d="M165.516 1.125h132.113c.594 0 1.18.059 1.758.176A9.007 9.007 0 0 1 304 3.766c.418.418.79.87 1.121 1.363a9.042 9.042 0 0 1 1.344 3.246c.113.582.172 1.168.172 1.758v42.035c0 .594-.059 1.18-.172 1.758a9.042 9.042 0 0 1-1.344 3.25 9.373 9.373 0 0 1-1.12 1.363 9.007 9.007 0 0 1-4.613 2.465 8.823 8.823 0 0 1-1.759.172H165.516a8.88 8.88 0 0 1-1.758-.172 9.042 9.042 0 0 1-3.246-1.344 9.127 9.127 0 0 1-2.484-2.484 9.042 9.042 0 0 1-1.52-5.008V10.133c0-.59.058-1.176.176-1.758a9.042 9.042 0 0 1 1.344-3.246 8.933 8.933 0 0 1 1.12-1.363 8.933 8.933 0 0 1 2.922-1.953 8.845 8.845 0 0 1 1.688-.512 8.884 8.884 0 0 1 1.758-.176Zm0 0"/><use xlink:href="#Z" x="215.927" y="33.779"/><use xlink:href="#b" x="221.429" y="33.779"/><use xlink:href="#e" x="226.439" y="33.779"/><use xlink:href="#X" x="228.942" y="33.779"/><use xlink:href="#Y" x="233.445" y="33.779"/><use xlink:href="#b" x="238.455" y="33.779"/><use xlink:href="#f" x="243.465" y="33.779"/><path fill="#FFF" stroke="#000" stroke-width=".75064" d="M170.77 8.633h31.527c.445 0 .883.043 1.32.129.434.086.856.215 1.266.386.41.168.8.375 1.168.622.371.246.71.527 1.023.84.317.316.594.656.84 1.027a6.77 6.77 0 0 1 1.012 2.434c.086.433.129.874.129 1.316v31.527c0 .445-.043.883-.13 1.32a6.86 6.86 0 0 1-1.01 2.434 6.4 6.4 0 0 1-.84 1.023 6.4 6.4 0 0 1-1.024.84 6.86 6.86 0 0 1-2.434 1.012 6.814 6.814 0 0 1-1.32.129H170.77c-.442 0-.883-.043-1.317-.129a6.77 6.77 0 0 1-2.433-1.012 6.608 6.608 0 0 1-1.028-.84 6.85 6.85 0 0 1-.84-1.023 6.56 6.56 0 0 1-.62-1.168c-.173-.41-.301-.832-.387-1.266a6.814 6.814 0 0 1-.13-1.32V15.387c0-.442.044-.883.13-1.317a6.49 6.49 0 0 1 .386-1.265c.168-.41.375-.801.621-1.168.25-.371.528-.711.84-1.028a6.839 6.839 0 0 1 1.028-.84 6.56 6.56 0 0 1 1.168-.62 6.49 6.49 0 0 1 1.265-.387 6.775 6.775 0 0 1 1.317-.13Zm0 0"/><use xlink:href="#aa" x="179.896" y="33.779"/><use xlink:href="#d" x="185.904" y="33.779"/><path fill="#FFF" stroke="#000" stroke-width=".75064" d="M260.848 8.633h31.527a6.745 6.745 0 0 1 5.617 3.004A6.759 6.759 0 0 1 299 14.07c.086.433.133.874.133 1.316v31.527a6.818 6.818 0 0 1-1.14 3.754c-.247.371-.528.71-.84 1.023a6.578 6.578 0 0 1-1.024.84 6.808 6.808 0 0 1-2.438 1.012 6.745 6.745 0 0 1-1.316.129h-31.527c-.442 0-.883-.043-1.317-.129a6.808 6.808 0 0 1-2.437-1.012 6.765 6.765 0 0 1-2.488-3.031 6.814 6.814 0 0 1-.512-2.586V15.387a6.775 6.775 0 0 1 .512-2.582 6.84 6.84 0 0 1 1.464-2.196 6.697 6.697 0 0 1 2.191-1.46c.411-.172.833-.301 1.27-.387a6.775 6.775 0 0 1 1.317-.13Zm0 0"/><use xlink:href="#aa" x="258.209" y="33.779"/><use xlink:href="#f" x="264.217" y="33.779"/><use xlink:href="#b" x="267.217" y="33.779"/><use xlink:href="#s" x="272.227" y="33.779"/><use xlink:href="#L" x="277.236" y="33.779"/><use xlink:href="#X" x="279.238" y="33.779"/><use xlink:href="#e" x="283.741" y="33.779"/><use xlink:href="#C" x="286.244" y="33.779"/><use xlink:href="#f" x="291.254" y="33.779"/><path fill="none" stroke="#000" stroke-miterlimit="10" stroke-width=".75064" d="M126.484 16.14h25.243"/><path stroke="#000" stroke-miterlimit="10" stroke-width=".75064" d="m155.668 16.14-5.254 2.626 1.313-2.625-1.313-2.63Zm0 0"/><path fill="none" stroke="#000" stroke-miterlimit="10" stroke-width=".75064" d="M156.508 46.164h-25.242"/><path stroke="#000" stroke-miterlimit="10" stroke-width=".75064" d="m127.324 46.164 5.254-2.625-1.312 2.625 1.312 2.629Zm0 0"/><path fill="#FFF" stroke="#000" stroke-width=".75064" d="M346.422 1.125h71.313c.59 0 1.175.059 1.753.176a9.042 9.042 0 0 1 3.25 1.344c.493.328.946.703 1.364 1.12a8.933 8.933 0 0 1 1.953 2.923c.226.546.398 1.109.512 1.687.117.582.175 1.168.175 1.758v42.035c0 .594-.058 1.18-.175 1.758a9.042 9.042 0 0 1-1.344 3.25 9.127 9.127 0 0 1-2.485 2.484 9.042 9.042 0 0 1-3.25 1.344 8.812 8.812 0 0 1-1.753.172h-71.313a8.88 8.88 0 0 1-1.758-.172 8.883 8.883 0 0 1-1.691-.512 9.152 9.152 0 0 1-1.555-.832 8.964 8.964 0 0 1-2.484-2.484 8.8 8.8 0 0 1-.836-1.559 9.387 9.387 0 0 1-.512-1.691 9.122 9.122 0 0 1-.172-1.758V10.133c0-.59.059-1.176.172-1.758.117-.578.29-1.14.512-1.687a8.8 8.8 0 0 1 .836-1.56 8.908 8.908 0 0 1 2.484-2.483 9.152 9.152 0 0 1 1.555-.832 8.883 8.883 0 0 1 1.691-.512 8.884 8.884 0 0 1 1.758-.176Zm0 0"/><use xlink:href="#ab" x="364.672" y="33.779"/><use xlink:href="#b" x="371.177" y="33.779"/><use xlink:href="#X" x="376.186" y="33.779"/><use xlink:href="#C" x="380.69" y="33.779"/><use xlink:href="#s" x="385.7" y="33.779"/><use xlink:href="#b" x="390.709" y="33.779"/><use xlink:href="#f" x="395.719" y="33.779"/><path fill="none" stroke="#000" stroke-miterlimit="10" stroke-width=".75064" d="M306.637 31.152h25.996"/><path stroke="#000" stroke-miterlimit="10" stroke-width=".75064" d="m336.574 31.152-5.254 2.625 1.313-2.625-1.313-2.629Zm0 0"/><path fill="none" stroke="#000" stroke-miterlimit="10" stroke-width=".75064" d="M186.535 76.191h292.75M382.078 61.176l.254 10.234"/><path stroke="#000" stroke-miterlimit="10" stroke-width=".75064" d="m382.43 75.348-2.754-5.184 2.656 1.246 2.598-1.375Zm0 0"/><path fill="none" stroke="#000" stroke-miterlimit="10" stroke-width=".75064" d="M186.535 76.191v40.254"/><path stroke="#000" stroke-miterlimit="10" stroke-width=".75064" d="m186.535 120.387-2.629-5.254 2.63 1.312 2.624-1.312Zm0 0"/><path fill="none" stroke="#000" stroke-miterlimit="10" stroke-width=".75064" d="m336.664 76.191.668 40.254"/><path stroke="#000" stroke-miterlimit="10" stroke-width=".75064" d="m337.399 120.387-2.711-5.207 2.644 1.265 2.606-1.355Zm0 0"/><path fill="none" stroke="#000" stroke-miterlimit="10" stroke-width=".75064" d="M479.285 76.191v40.254"/><path stroke="#000" stroke-miterlimit="10" stroke-width=".75064" d="m479.285 120.387-2.629-5.254 2.63 1.312 2.628-1.312Zm0 0"/><path fill="#FFF" stroke="#000" stroke-width=".75064" d="M465.774 1.125H567.86c.593 0 1.18.059 1.757.176a9.042 9.042 0 0 1 3.25 1.344 9.126 9.126 0 0 1 2.485 2.484 9.042 9.042 0 0 1 1.344 3.246 8.88 8.88 0 0 1 .171 1.758v42.035c0 .594-.054 1.18-.171 1.758a9.042 9.042 0 0 1-1.344 3.25 9.127 9.127 0 0 1-2.485 2.484 9.042 9.042 0 0 1-3.25 1.344 8.823 8.823 0 0 1-1.757.172H465.774a8.88 8.88 0 0 1-1.758-.172 9.042 9.042 0 0 1-4.613-2.465 9.042 9.042 0 0 1-2.637-6.371V10.133c0-.59.058-1.176.172-1.758a9.147 9.147 0 0 1 1.347-3.246 8.908 8.908 0 0 1 2.485-2.484 9.042 9.042 0 0 1 5.004-1.52Zm0 0"/><use xlink:href="#h" x="499.67" y="33.779"/><use xlink:href="#b" x="506.175" y="33.779"/><use xlink:href="#ac" x="511.185" y="33.779"/><use xlink:href="#E" x="516.194" y="33.779"/><use xlink:href="#Z" x="518.697" y="33.779"/><use xlink:href="#L" x="524.199" y="33.779"/><use xlink:href="#g" x="526.201" y="33.779"/><use xlink:href="#b" x="528.202" y="33.779"/><path fill="none" stroke="#000" stroke-miterlimit="10" stroke-width=".75064" d="M456.766 31.152h-25.242"/><path stroke="#000" stroke-miterlimit="10" stroke-width=".75064" d="m427.582 31.152 5.254-2.629-1.312 2.63 1.312 2.624Zm0 0"/><path fill="none" stroke="#000" stroke-miterlimit="10" stroke-width=".75064" d="M524.324 121.23V65.958"/><path stroke="#000" stroke-miterlimit="10" stroke-width=".75064" d="m524.324 62.02 2.625 5.253-2.625-1.316-2.628 1.316Zm0 0"/><path fill="#FFF" d="M511.938 72.063h26.273v9.757h-26.274Zm0 0"/><use xlink:href="#O" x="511.774" y="79.568"/><use xlink:href="#o" x="515.903" y="79.568"/><use xlink:href="#ad" x="520.495" y="79.568"/><use xlink:href="#ad" x="527.373" y="79.568"/><use xlink:href="#ae" x="534.251" y="79.568"/><use xlink:href="#r" x="536.086" y="79.568"/><path fill="none" stroke="#000" stroke-miterlimit="10" stroke-width=".75064" d="M246.586 91.203h330.281M246.586 91.203v25.242"/><path stroke="#000" stroke-miterlimit="10" stroke-width=".75064" d="m246.586 120.387-2.629-5.254 2.63 1.312 2.628-1.312Zm0 0"/><path fill="none" stroke="#000" stroke-miterlimit="10" stroke-width=".75064" d="m396.715 91.203.629 25.242"/><path stroke="#000" stroke-miterlimit="10" stroke-width=".75064" d="m397.442 120.387-2.754-5.188 2.656 1.246 2.598-1.37Zm0 0"/></svg>